# Blender v2.92.0 OBJ File: ''
# www.blender.org
o OpenFracture
v 0.240000 0.154266 -0.629203
v 0.240000 0.066875 -0.572625
v 0.240000 0.010797 -0.477984
v 0.240000 -0.009000 -0.345000
v 0.240000 0.006562 -0.239875
v 0.240000 0.054750 -0.149000
v 0.240000 0.137812 -0.085125
v 0.240000 0.258000 -0.061000
v 0.240000 0.682000 -0.061000
v 0.240000 0.682000 -0.159000
v 0.240000 0.279000 -0.159000
v 0.240000 0.229000 -0.161047
v 0.240000 0.191750 -0.167875
v 0.240000 0.163125 -0.180516
v 0.240000 0.139000 -0.200000
v 0.240000 0.113484 -0.231125
v 0.240000 0.095375 -0.266000
v 0.240000 0.084578 -0.304625
v 0.240000 0.081000 -0.347000
v 0.240000 0.085234 -0.399281
v 0.240000 0.096875 -0.443500
v 0.240000 0.114328 -0.479469
v 0.240000 0.136000 -0.507000
v 0.240000 0.165047 -0.528484
v 0.240000 0.199625 -0.541625
v 0.240000 0.239641 -0.548203
v 0.240000 0.285000 -0.550000
v 0.240000 0.682000 -0.550000
v 0.240000 0.682000 -0.648000
v 0.240000 0.268000 -0.648000
v -0.240000 0.154266 -0.629203
v -0.240000 0.066875 -0.572625
v -0.240000 0.010797 -0.477984
v -0.240000 -0.009000 -0.345000
v -0.240000 0.006562 -0.239875
v -0.240000 0.054750 -0.149000
v -0.240000 0.137813 -0.085125
v -0.240000 0.258000 -0.061000
v -0.240000 0.682000 -0.061000
v -0.240000 0.682000 -0.159000
v -0.240000 0.279000 -0.159000
v -0.240000 0.229000 -0.161047
v -0.240000 0.191750 -0.167875
v -0.240000 0.163125 -0.180516
v -0.240000 0.139000 -0.200000
v -0.240000 0.113484 -0.231125
v -0.240000 0.095375 -0.266000
v -0.240000 0.084578 -0.304625
v -0.240000 0.081000 -0.347000
v -0.240000 0.085234 -0.399281
v -0.240000 0.096875 -0.443500
v -0.240000 0.114328 -0.479469
v -0.240000 0.136000 -0.507000
v -0.240000 0.165047 -0.528484
v -0.240000 0.199625 -0.541625
v -0.240000 0.239641 -0.548203
v -0.240000 0.285000 -0.550000
v -0.240000 0.682000 -0.550000
v -0.240000 0.682000 -0.648000
v -0.240000 0.268000 -0.648000
v -0.240000 0.154266 -0.629203
v 0.240000 0.154266 -0.629203
v -0.240000 0.066875 -0.572625
v 0.240000 0.066875 -0.572625
v -0.240000 0.010797 -0.477984
v 0.240000 0.010797 -0.477984
v -0.240000 -0.009000 -0.345000
v 0.240000 -0.009000 -0.345000
v -0.240000 0.006562 -0.239875
v 0.240000 0.006562 -0.239875
v -0.240000 0.054750 -0.149000
v 0.240000 0.054750 -0.149000
v -0.240000 0.137813 -0.085125
v 0.240000 0.137812 -0.085125
v -0.240000 0.258000 -0.061000
v 0.240000 0.258000 -0.061000
v -0.240000 0.682000 -0.061000
v 0.240000 0.682000 -0.061000
v -0.240000 0.682000 -0.159000
v 0.240000 0.682000 -0.159000
v -0.240000 0.279000 -0.159000
v 0.240000 0.279000 -0.159000
v -0.240000 0.229000 -0.161047
v 0.240000 0.229000 -0.161047
v -0.240000 0.191750 -0.167875
v 0.240000 0.191750 -0.167875
v -0.240000 0.163125 -0.180516
v 0.240000 0.163125 -0.180516
v -0.240000 0.139000 -0.200000
v 0.240000 0.139000 -0.200000
v -0.240000 0.113484 -0.231125
v 0.240000 0.113484 -0.231125
v -0.240000 0.095375 -0.266000
v 0.240000 0.095375 -0.266000
v -0.240000 0.084578 -0.304625
v 0.240000 0.084578 -0.304625
v -0.240000 0.081000 -0.347000
v 0.240000 0.081000 -0.347000
v -0.240000 0.085234 -0.399281
v 0.240000 0.085234 -0.399281
v -0.240000 0.096875 -0.443500
v 0.240000 0.096875 -0.443500
v -0.240000 0.114328 -0.479469
v 0.240000 0.114328 -0.479469
v -0.240000 0.136000 -0.507000
v 0.240000 0.136000 -0.507000
v -0.240000 0.165047 -0.528484
v 0.240000 0.165047 -0.528484
v -0.240000 0.199625 -0.541625
v 0.240000 0.199625 -0.541625
v -0.240000 0.239641 -0.548203
v 0.240000 0.239641 -0.548203
v -0.240000 0.285000 -0.550000
v 0.240000 0.285000 -0.550000
v -0.240000 0.682000 -0.550000
v 0.240000 0.682000 -0.550000
v -0.240000 0.682000 -0.648000
v 0.240000 0.682000 -0.648000
v -0.240000 0.268000 -0.648000
v 0.240000 0.268000 -0.648000
vt 0.241379 0.000000
vt 0.310345 0.000000
vt 0.275862 0.000000
vt 0.344828 0.000000
vt 0.896552 0.000000
vt 0.965517 0.000000
vt 0.931035 0.000000
vt 1.000000 0.000000
vt 0.862069 0.000000
vt 0.379310 0.000000
vt 0.000000 0.000000
vt 0.206897 0.000000
vt 0.827586 0.000000
vt 0.413793 0.000000
vt 0.793103 0.000000
vt 0.448276 0.000000
vt 0.758621 0.000000
vt 0.482759 0.000000
vt 0.034483 0.000000
vt 0.517241 0.000000
vt 0.172414 0.000000
vt 0.724138 0.000000
vt 0.689655 0.000000
vt 0.551724 0.000000
vt 0.655172 0.000000
vt 0.586207 0.000000
vt 0.620690 0.000000
vt 0.068966 0.000000
vt 0.137931 0.000000
vt 0.103448 0.000000
vt 0.310345 0.000000
vt 0.241379 0.000000
vt 0.275862 0.000000
vt 0.344828 0.000000
vt 0.965517 0.000000
vt 0.896552 0.000000
vt 0.931035 0.000000
vt 1.000000 0.000000
vt 0.862069 0.000000
vt 0.379310 0.000000
vt 0.000000 0.000000
vt 0.206897 0.000000
vt 0.827586 0.000000
vt 0.413793 0.000000
vt 0.793103 0.000000
vt 0.448276 0.000000
vt 0.758621 0.000000
vt 0.482759 0.000000
vt 0.034483 0.000000
vt 0.517241 0.000000
vt 0.172414 0.000000
vt 0.724138 0.000000
vt 0.689655 0.000000
vt 0.551724 0.000000
vt 0.655172 0.000000
vt 0.586207 0.000000
vt 0.620690 0.000000
vt 0.068966 0.000000
vt 0.137931 0.000000
vt 0.103448 0.000000
vt 0.000000 1.000000
vt 0.033333 1.000000
vt 0.033333 0.000000
vt 0.000000 0.000000
vt 0.066667 1.000000
vt 0.066667 0.000000
vt 0.100000 1.000000
vt 0.100000 0.000000
vt 0.133333 1.000000
vt 0.133333 0.000000
vt 0.166667 1.000000
vt 0.166667 0.000000
vt 0.200000 1.000000
vt 0.200000 0.000000
vt 0.233333 1.000000
vt 0.233333 0.000000
vt 0.266667 1.000000
vt 0.266667 0.000000
vt 0.300000 1.000000
vt 0.300000 0.000000
vt 0.333333 1.000000
vt 0.333333 0.000000
vt 0.366667 1.000000
vt 0.366667 0.000000
vt 0.400000 1.000000
vt 0.400000 0.000000
vt 0.433333 1.000000
vt 0.433333 0.000000
vt 0.466667 1.000000
vt 0.466667 0.000000
vt 0.500000 1.000000
vt 0.500000 0.000000
vt 0.533333 1.000000
vt 0.533333 0.000000
vt 0.566667 1.000000
vt 0.566667 0.000000
vt 0.600000 1.000000
vt 0.600000 0.000000
vt 0.633333 1.000000
vt 0.633333 0.000000
vt 0.666667 1.000000
vt 0.666667 0.000000
vt 0.700000 1.000000
vt 0.700000 0.000000
vt 0.733333 1.000000
vt 0.733333 0.000000
vt 0.766667 1.000000
vt 0.766667 0.000000
vt 0.800000 1.000000
vt 0.800000 0.000000
vt 0.833333 1.000000
vt 0.833333 0.000000
vt 0.866667 1.000000
vt 0.866667 0.000000
vt 0.900000 1.000000
vt 0.900000 0.000000
vt 0.933333 1.000000
vt 0.933333 0.000000
vt 0.966667 1.000000
vt 0.966667 0.000000
vt 1.000000 1.000000
vt 1.000000 0.000000
vn 1.0000 -0.0000 0.0000
vn -1.0000 0.0000 0.0000
vn 0.0000 -0.3608 -0.9326
vn 0.0000 -0.7210 -0.6929
vn 0.0000 -0.9423 -0.3347
vn 0.0000 -1.0000 -0.0004
vn 0.0000 -0.9501 0.3120
vn 0.0000 -0.7639 0.6453
vn 0.0000 -0.4140 0.9103
vn 0.0000 -0.0989 0.9951
vn 0.0000 0.7071 0.7071
vn 0.0000 0.7071 -0.7071
vn 0.0000 0.0204 -0.9998
vn 0.0000 0.1109 -0.9938
vn 0.0000 0.2941 -0.9557
vn 0.0000 0.5206 -0.8538
vn 0.0000 0.7045 -0.7097
vn 0.0000 0.8349 -0.5504
vn 0.0000 0.9302 -0.3670
vn 0.0000 0.9841 -0.1774
vn 0.0000 1.0000 -0.0017
vn 0.0000 0.9857 0.1683
vn 0.0000 0.9378 0.3472
vn 0.0000 0.8476 0.5306
vn 0.0000 0.6964 0.7176
vn 0.0000 0.4794 0.8776
vn 0.0000 0.2600 0.9656
vn 0.0000 0.1011 0.9949
vn 0.0000 0.0198 0.9998
vn 0.0000 -0.0818 -0.9966
s off
f 8/1/1 10/2/1 9/3/1
f 8/1/1 11/4/1 10/2/1
f 27/5/1 29/6/1 28/7/1
f 27/5/1 30/8/1 29/6/1
f 26/9/1 30/8/1 27/5/1
f 8/1/1 12/10/1 11/4/1
f 26/9/1 1/11/1 30/8/1
f 7/12/1 12/10/1 8/1/1
f 25/13/1 1/11/1 26/9/1
f 7/12/1 13/14/1 12/10/1
f 24/15/1 1/11/1 25/13/1
f 7/12/1 14/16/1 13/14/1
f 23/17/1 1/11/1 24/15/1
f 7/12/1 15/18/1 14/16/1
f 23/17/1 2/19/1 1/11/1
f 7/12/1 16/20/1 15/18/1
f 6/21/1 16/20/1 7/12/1
f 22/22/1 2/19/1 23/17/1
f 21/23/1 2/19/1 22/22/1
f 6/21/1 17/24/1 16/20/1
f 20/25/1 2/19/1 21/23/1
f 6/21/1 18/26/1 17/24/1
f 19/27/1 2/19/1 20/25/1
f 6/21/1 19/27/1 18/26/1
f 6/21/1 2/19/1 19/27/1
f 6/21/1 3/28/1 2/19/1
f 5/29/1 3/28/1 6/21/1
f 5/29/1 4/30/1 3/28/1
f 40/31/2 38/32/2 39/33/2
f 41/34/2 38/32/2 40/31/2
f 59/35/2 57/36/2 58/37/2
f 60/38/2 57/36/2 59/35/2
f 60/38/2 56/39/2 57/36/2
f 42/40/2 38/32/2 41/34/2
f 31/41/2 56/39/2 60/38/2
f 42/40/2 37/42/2 38/32/2
f 31/41/2 55/43/2 56/39/2
f 43/44/2 37/42/2 42/40/2
f 31/41/2 54/45/2 55/43/2
f 44/46/2 37/42/2 43/44/2
f 31/41/2 53/47/2 54/45/2
f 45/48/2 37/42/2 44/46/2
f 32/49/2 53/47/2 31/41/2
f 46/50/2 37/42/2 45/48/2
f 46/50/2 36/51/2 37/42/2
f 32/49/2 52/52/2 53/47/2
f 32/49/2 51/53/2 52/52/2
f 47/54/2 36/51/2 46/50/2
f 32/49/2 50/55/2 51/53/2
f 48/56/2 36/51/2 47/54/2
f 32/49/2 49/57/2 50/55/2
f 49/57/2 36/51/2 48/56/2
f 32/49/2 36/51/2 49/57/2
f 33/58/2 36/51/2 32/49/2
f 33/58/2 35/59/2 36/51/2
f 34/60/2 35/59/2 33/58/2
s 1
f 62/61/3 64/62/4 63/63/4 61/64/3
f 64/62/4 66/65/5 65/66/5 63/63/4
f 66/65/5 68/67/6 67/68/6 65/66/5
f 68/67/6 70/69/7 69/70/7 67/68/6
f 70/69/7 72/71/8 71/72/8 69/70/7
f 72/71/8 74/73/9 73/74/9 71/72/8
f 74/73/9 76/75/10 75/76/10 73/74/9
f 76/75/10 78/77/11 77/78/11 75/76/10
f 78/77/11 80/79/12 79/80/12 77/78/11
f 80/79/12 82/81/13 81/82/13 79/80/12
f 82/81/13 84/83/14 83/84/14 81/82/13
f 84/83/14 86/85/15 85/86/15 83/84/14
f 86/85/15 88/87/16 87/88/16 85/86/15
f 88/87/16 90/89/17 89/90/17 87/88/16
f 90/89/17 92/91/18 91/92/18 89/90/17
f 92/91/18 94/93/19 93/94/19 91/92/18
f 94/93/19 96/95/20 95/96/20 93/94/19
f 96/95/20 98/97/21 97/98/21 95/96/20
f 98/97/21 100/99/22 99/100/22 97/98/21
f 100/99/22 102/101/23 101/102/23 99/100/22
f 102/101/23 104/103/24 103/104/24 101/102/23
f 104/103/24 106/105/25 105/106/25 103/104/24
f 106/105/25 108/107/26 107/108/26 105/106/25
f 108/107/26 110/109/27 109/110/27 107/108/26
f 110/109/27 112/111/28 111/112/28 109/110/27
f 112/111/28 114/113/29 113/114/29 111/112/28
f 114/113/29 116/115/11 115/116/11 113/114/29
f 116/115/11 118/117/12 117/118/12 115/116/11
f 118/117/12 120/119/30 119/120/30 117/118/12
f 120/119/30 62/121/3 61/122/3 119/120/30
