# Blender v2.92.0 OBJ File: ''
# www.blender.org
o OpenFracture
v 0.240000 0.561766 -0.594953
v 0.240000 0.583875 -0.536625
v 0.240000 0.596797 -0.479234
v 0.240000 0.601000 -0.421000
v 0.240000 0.581313 -0.312688
v 0.240000 0.526750 -0.226500
v 0.240000 0.444063 -0.169563
v 0.240000 0.340000 -0.149000
v 0.240000 0.234984 -0.169063
v 0.240000 0.153125 -0.225500
v 0.240000 0.099953 -0.312688
v 0.240000 0.081000 -0.425000
v 0.240000 0.086000 -0.483844
v 0.240000 0.100750 -0.544000
v 0.240000 0.124875 -0.604156
v 0.240000 0.158000 -0.663000
v 0.240000 0.051000 -0.663000
v 0.240000 0.026859 -0.611187
v 0.240000 0.007875 -0.554500
v 0.240000 -0.004547 -0.490313
v 0.240000 -0.009000 -0.416000
v 0.240000 0.024016 -0.250500
v 0.240000 0.107375 -0.136000
v 0.240000 0.217547 -0.069500
v 0.240000 0.331000 -0.048000
v 0.240000 0.475000 -0.075922
v 0.240000 0.589000 -0.153625
v 0.240000 0.664000 -0.272016
v 0.240000 0.691000 -0.422000
v 0.240000 0.687734 -0.475016
v 0.240000 0.677625 -0.530375
v 0.240000 0.660203 -0.590047
v 0.240000 0.635000 -0.656000
v 0.240000 0.530000 -0.656000
v -0.240000 0.561766 -0.594953
v -0.240000 0.583875 -0.536625
v -0.240000 0.596797 -0.479234
v -0.240000 0.601000 -0.421000
v -0.240000 0.581313 -0.312688
v -0.240000 0.526750 -0.226500
v -0.240000 0.444063 -0.169563
v -0.240000 0.340000 -0.149000
v -0.240000 0.234984 -0.169063
v -0.240000 0.153125 -0.225500
v -0.240000 0.099953 -0.312688
v -0.240000 0.081000 -0.425000
v -0.240000 0.086000 -0.483844
v -0.240000 0.100750 -0.544000
v -0.240000 0.124875 -0.604156
v -0.240000 0.158000 -0.663000
v -0.240000 0.051000 -0.663000
v -0.240000 0.026859 -0.611187
v -0.240000 0.007875 -0.554500
v -0.240000 -0.004547 -0.490313
v -0.240000 -0.009000 -0.416000
v -0.240000 0.024016 -0.250500
v -0.240000 0.107375 -0.136000
v -0.240000 0.217547 -0.069500
v -0.240000 0.331000 -0.048000
v -0.240000 0.475000 -0.075922
v -0.240000 0.589000 -0.153625
v -0.240000 0.664000 -0.272016
v -0.240000 0.691000 -0.422000
v -0.240000 0.687734 -0.475016
v -0.240000 0.677625 -0.530375
v -0.240000 0.660203 -0.590047
v -0.240000 0.635000 -0.656000
v -0.240000 0.530000 -0.656000
v -0.240000 0.561766 -0.594953
v 0.240000 0.561766 -0.594953
v -0.240000 0.583875 -0.536625
v 0.240000 0.583875 -0.536625
v -0.240000 0.596797 -0.479234
v 0.240000 0.596797 -0.479234
v -0.240000 0.601000 -0.421000
v 0.240000 0.601000 -0.421000
v -0.240000 0.581313 -0.312688
v 0.240000 0.581313 -0.312688
v -0.240000 0.526750 -0.226500
v 0.240000 0.526750 -0.226500
v -0.240000 0.444063 -0.169563
v 0.240000 0.444063 -0.169563
v -0.240000 0.340000 -0.149000
v 0.240000 0.340000 -0.149000
v -0.240000 0.234984 -0.169063
v 0.240000 0.234984 -0.169063
v -0.240000 0.153125 -0.225500
v 0.240000 0.153125 -0.225500
v -0.240000 0.099953 -0.312688
v 0.240000 0.099953 -0.312688
v -0.240000 0.081000 -0.425000
v 0.240000 0.081000 -0.425000
v -0.240000 0.086000 -0.483844
v 0.240000 0.086000 -0.483844
v -0.240000 0.100750 -0.544000
v 0.240000 0.100750 -0.544000
v -0.240000 0.124875 -0.604156
v 0.240000 0.124875 -0.604156
v -0.240000 0.158000 -0.663000
v 0.240000 0.158000 -0.663000
v -0.240000 0.051000 -0.663000
v 0.240000 0.051000 -0.663000
v -0.240000 0.026859 -0.611187
v 0.240000 0.026859 -0.611187
v -0.240000 0.007875 -0.554500
v 0.240000 0.007875 -0.554500
v -0.240000 -0.004547 -0.490313
v 0.240000 -0.004547 -0.490313
v -0.240000 -0.009000 -0.416000
v 0.240000 -0.009000 -0.416000
v -0.240000 0.024016 -0.250500
v 0.240000 0.024016 -0.250500
v -0.240000 0.107375 -0.136000
v 0.240000 0.107375 -0.136000
v -0.240000 0.217547 -0.069500
v 0.240000 0.217547 -0.069500
v -0.240000 0.331000 -0.048000
v 0.240000 0.331000 -0.048000
v -0.240000 0.475000 -0.075922
v 0.240000 0.475000 -0.075922
v -0.240000 0.589000 -0.153625
v 0.240000 0.589000 -0.153625
v -0.240000 0.664000 -0.272016
v 0.240000 0.664000 -0.272016
v -0.240000 0.691000 -0.422000
v 0.240000 0.691000 -0.422000
v -0.240000 0.687734 -0.475016
v 0.240000 0.687734 -0.475016
v -0.240000 0.677625 -0.530375
v 0.240000 0.677625 -0.530375
v -0.240000 0.660203 -0.590047
v 0.240000 0.660203 -0.590047
v -0.240000 0.635000 -0.656000
v 0.240000 0.635000 -0.656000
v -0.240000 0.530000 -0.656000
v 0.240000 0.530000 -0.656000
vt 0.818182 0.000000
vt 0.878788 0.000000
vt 0.848485 0.000000
vt 0.909091 0.000000
vt 0.939394 0.000000
vt 0.787879 0.000000
vt 0.969697 0.000000
vt 0.090909 0.000000
vt 0.060606 0.000000
vt 0.030303 0.000000
vt 0.000000 0.000000
vt 1.000000 0.000000
vt 0.121212 0.000000
vt 0.757576 0.000000
vt 0.151515 0.000000
vt 0.181818 0.000000
vt 0.727273 0.000000
vt 0.212121 0.000000
vt 0.242424 0.000000
vt 0.696970 0.000000
vt 0.272727 0.000000
vt 0.666667 0.000000
vt 0.424242 0.000000
vt 0.484848 0.000000
vt 0.454545 0.000000
vt 0.303030 0.000000
vt 0.393939 0.000000
vt 0.636364 0.000000
vt 0.363636 0.000000
vt 0.333333 0.000000
vt 0.515152 0.000000
vt 0.545455 0.000000
vt 0.606061 0.000000
vt 0.575758 0.000000
vt 0.878788 0.000000
vt 0.818182 0.000000
vt 0.848485 0.000000
vt 0.909091 0.000000
vt 0.939394 0.000000
vt 0.787879 0.000000
vt 0.969697 0.000000
vt 0.090909 0.000000
vt 0.060606 0.000000
vt 0.030303 0.000000
vt 0.000000 0.000000
vt 1.000000 0.000000
vt 0.121212 0.000000
vt 0.757576 0.000000
vt 0.151515 0.000000
vt 0.181818 0.000000
vt 0.727273 0.000000
vt 0.212121 0.000000
vt 0.242424 0.000000
vt 0.696970 0.000000
vt 0.272727 0.000000
vt 0.666667 0.000000
vt 0.484848 0.000000
vt 0.424242 0.000000
vt 0.454545 0.000000
vt 0.303030 0.000000
vt 0.393939 0.000000
vt 0.636364 0.000000
vt 0.363636 0.000000
vt 0.333333 0.000000
vt 0.515152 0.000000
vt 0.545455 0.000000
vt 0.606061 0.000000
vt 0.575758 0.000000
vt 0.000000 1.000000
vt 0.029412 1.000000
vt 0.029412 0.000000
vt 0.000000 0.000000
vt 0.058824 1.000000
vt 0.058824 0.000000
vt 0.088235 1.000000
vt 0.088235 0.000000
vt 0.117647 1.000000
vt 0.117647 0.000000
vt 0.147059 1.000000
vt 0.147059 0.000000
vt 0.176471 1.000000
vt 0.176471 0.000000
vt 0.205882 1.000000
vt 0.205882 0.000000
vt 0.235294 1.000000
vt 0.235294 0.000000
vt 0.264706 1.000000
vt 0.264706 0.000000
vt 0.294118 1.000000
vt 0.294118 0.000000
vt 0.323529 1.000000
vt 0.323529 0.000000
vt 0.352941 1.000000
vt 0.352941 0.000000
vt 0.382353 1.000000
vt 0.382353 0.000000
vt 0.411765 1.000000
vt 0.411765 0.000000
vt 0.441176 1.000000
vt 0.441176 0.000000
vt 0.470588 1.000000
vt 0.470588 0.000000
vt 0.500000 1.000000
vt 0.500000 0.000000
vt 0.529412 1.000000
vt 0.529412 0.000000
vt 0.558824 1.000000
vt 0.558824 0.000000
vt 0.588235 1.000000
vt 0.588235 0.000000
vt 0.617647 1.000000
vt 0.617647 0.000000
vt 0.647059 1.000000
vt 0.647059 0.000000
vt 0.676471 1.000000
vt 0.676471 0.000000
vt 0.705882 1.000000
vt 0.705882 0.000000
vt 0.735294 1.000000
vt 0.735294 0.000000
vt 0.764706 1.000000
vt 0.764706 0.000000
vt 0.794118 1.000000
vt 0.794118 0.000000
vt 0.823529 1.000000
vt 0.823529 0.000000
vt 0.852941 1.000000
vt 0.852941 0.000000
vt 0.882353 1.000000
vt 0.882353 0.000000
vt 0.911765 1.000000
vt 0.911765 0.000000
vt 0.941176 1.000000
vt 0.941176 0.000000
vt 0.970588 1.000000
vt 0.970588 0.000000
vt 1.000000 1.000000
vt 1.000000 0.000000
vn 1.0000 -0.0000 0.0000
vn -1.0000 0.0000 0.0000
vn 0.0000 -0.9127 0.4087
vn 0.0000 -0.9577 0.2878
vn 0.0000 -0.9892 0.1462
vn 0.0000 -0.9985 -0.0538
vn 0.0000 -0.9315 -0.3635
vn 0.0000 -0.7206 -0.6933
vn 0.0000 -0.3885 -0.9214
vn 0.0000 -0.0031 -1.0000
vn 0.0000 0.3859 -0.9225
vn 0.0000 0.7266 -0.6870
vn 0.0000 0.9368 -0.3498
vn 0.0000 0.9991 -0.0412
vn 0.0000 0.9868 0.1619
vn 0.0000 0.9520 0.3059
vn 0.0000 0.9017 0.4323
vn 0.0000 0.8633 -0.5047
vn 0.0000 -0.5374 -0.8433
vn 0.0000 -0.9288 -0.3705
vn 0.0000 -0.9671 -0.2543
vn 0.0000 -0.9921 -0.1252
vn 0.0000 -0.9977 0.0685
vn 0.0000 -0.9159 0.4014
vn 0.0000 -0.6760 0.7369
vn 0.0000 -0.3571 0.9340
vn 0.0000 0.0021 1.0000
vn 0.0000 0.3847 0.9230
vn 0.0000 0.7189 0.6951
vn 0.0000 0.9318 0.3629
vn 0.0000 0.9983 0.0583
vn 0.0000 0.9927 -0.1208
vn 0.0000 0.9731 -0.2302
vn 0.0000 0.9478 -0.3189
vn 0.0000 0.5670 -0.8237
vn 0.0000 -0.8549 -0.5188
s off
f 28/1/1 30/2/1 29/3/1
f 28/1/1 31/4/1 30/2/1
f 28/1/1 32/5/1 31/4/1
f 27/6/1 32/5/1 28/1/1
f 27/6/1 33/7/1 32/5/1
f 27/6/1 4/8/1 33/7/1
f 4/8/1 3/9/1 33/7/1
f 3/9/1 2/10/1 33/7/1
f 2/10/1 1/11/1 33/7/1
f 1/11/1 34/12/1 33/7/1
f 27/6/1 5/13/1 4/8/1
f 26/14/1 5/13/1 27/6/1
f 26/14/1 6/15/1 5/13/1
f 26/14/1 7/16/1 6/15/1
f 25/17/1 7/16/1 26/14/1
f 25/17/1 8/18/1 7/16/1
f 25/17/1 9/19/1 8/18/1
f 24/20/1 9/19/1 25/17/1
f 24/20/1 10/21/1 9/19/1
f 23/22/1 10/21/1 24/20/1
f 15/23/1 17/24/1 16/25/1
f 23/22/1 11/26/1 10/21/1
f 14/27/1 17/24/1 15/23/1
f 22/28/1 11/26/1 23/22/1
f 13/29/1 17/24/1 14/27/1
f 22/28/1 12/30/1 11/26/1
f 12/30/1 17/24/1 13/29/1
f 22/28/1 17/24/1 12/30/1
f 22/28/1 18/31/1 17/24/1
f 22/28/1 19/32/1 18/31/1
f 21/33/1 19/32/1 22/28/1
f 21/33/1 20/34/1 19/32/1
f 64/35/2 62/36/2 63/37/2
f 65/38/2 62/36/2 64/35/2
f 66/39/2 62/36/2 65/38/2
f 66/39/2 61/40/2 62/36/2
f 67/41/2 61/40/2 66/39/2
f 38/42/2 61/40/2 67/41/2
f 37/43/2 38/42/2 67/41/2
f 36/44/2 37/43/2 67/41/2
f 35/45/2 36/44/2 67/41/2
f 68/46/2 35/45/2 67/41/2
f 39/47/2 61/40/2 38/42/2
f 39/47/2 60/48/2 61/40/2
f 40/49/2 60/48/2 39/47/2
f 41/50/2 60/48/2 40/49/2
f 41/50/2 59/51/2 60/48/2
f 42/52/2 59/51/2 41/50/2
f 43/53/2 59/51/2 42/52/2
f 43/53/2 58/54/2 59/51/2
f 44/55/2 58/54/2 43/53/2
f 44/55/2 57/56/2 58/54/2
f 51/57/2 49/58/2 50/59/2
f 45/60/2 57/56/2 44/55/2
f 51/57/2 48/61/2 49/58/2
f 45/60/2 56/62/2 57/56/2
f 51/57/2 47/63/2 48/61/2
f 46/64/2 56/62/2 45/60/2
f 51/57/2 46/64/2 47/63/2
f 51/57/2 56/62/2 46/64/2
f 52/65/2 56/62/2 51/57/2
f 53/66/2 56/62/2 52/65/2
f 53/66/2 55/67/2 56/62/2
f 54/68/2 55/67/2 53/66/2
s 1
f 70/69/3 72/70/4 71/71/4 69/72/3
f 72/70/4 74/73/5 73/74/5 71/71/4
f 74/73/5 76/75/6 75/76/6 73/74/5
f 76/75/6 78/77/7 77/78/7 75/76/6
f 78/77/7 80/79/8 79/80/8 77/78/7
f 80/79/8 82/81/9 81/82/9 79/80/8
f 82/81/9 84/83/10 83/84/10 81/82/9
f 84/83/10 86/85/11 85/86/11 83/84/10
f 86/85/11 88/87/12 87/88/12 85/86/11
f 88/87/12 90/89/13 89/90/13 87/88/12
f 90/89/13 92/91/14 91/92/14 89/90/13
f 92/91/14 94/93/15 93/94/15 91/92/14
f 94/93/15 96/95/16 95/96/16 93/94/15
f 96/95/16 98/97/17 97/98/17 95/96/16
f 98/97/17 100/99/18 99/100/18 97/98/17
f 100/99/18 102/101/19 101/102/19 99/100/18
f 102/101/19 104/103/20 103/104/20 101/102/19
f 104/103/20 106/105/21 105/106/21 103/104/20
f 106/105/21 108/107/22 107/108/22 105/106/21
f 108/107/22 110/109/23 109/110/23 107/108/22
f 110/109/23 112/111/24 111/112/24 109/110/23
f 112/111/24 114/113/25 113/114/25 111/112/24
f 114/113/25 116/115/26 115/116/26 113/114/25
f 116/115/26 118/117/27 117/118/27 115/116/26
f 118/117/27 120/119/28 119/120/28 117/118/27
f 120/119/28 122/121/29 121/122/29 119/120/28
f 122/121/29 124/123/30 123/124/30 121/122/29
f 124/123/30 126/125/31 125/126/31 123/124/30
f 126/125/31 128/127/32 127/128/32 125/126/31
f 128/127/32 130/129/33 129/130/33 127/128/32
f 130/129/33 132/131/34 131/132/34 129/130/33
f 132/131/34 134/133/35 133/134/35 131/132/34
f 134/133/35 136/135/36 135/136/36 133/134/35
f 136/135/36 70/137/3 69/138/3 135/136/36
