# Blender v2.92.0 OBJ File: ''
# www.blender.org
o OpenFracture
v 0.240000 0.668750 -0.342219
v 0.240000 0.630750 -0.412750
v 0.240000 0.570625 -0.457406
v 0.240000 0.491000 -0.473000
v 0.240000 0.435656 -0.465453
v 0.240000 0.388750 -0.443375
v 0.240000 0.351219 -0.407609
v 0.240000 0.324000 -0.359000
v 0.240000 0.289125 -0.401594
v 0.240000 0.246000 -0.438750
v 0.240000 0.194625 -0.474031
v 0.240000 0.135000 -0.511000
v 0.240000 0.103219 -0.531156
v 0.240000 0.074250 -0.550750
v 0.240000 0.041906 -0.573719
v 0.240000 -0.000000 -0.604000
v 0.240000 -0.000000 -0.487000
v 0.240000 0.140000 -0.397000
v 0.240000 0.223437 -0.337781
v 0.240000 0.270500 -0.291500
v 0.240000 0.291313 -0.252719
v 0.240000 0.296000 -0.216000
v 0.240000 0.296000 -0.175000
v 0.240000 -0.000000 -0.175000
v 0.240000 -0.000000 -0.077000
v 0.240000 0.682000 -0.077000
v 0.240000 0.682000 -0.249000
v 0.240000 0.384000 -0.238000
v 0.240000 0.393328 -0.303375
v 0.240000 0.418125 -0.344750
v 0.240000 0.453609 -0.366250
v 0.240000 0.495000 -0.372000
v 0.240000 0.538094 -0.364000
v 0.240000 0.570500 -0.340250
v 0.240000 0.590906 -0.298875
v 0.240000 0.598000 -0.238000
v 0.240000 0.598000 -0.175000
v 0.240000 0.384000 -0.175000
v -0.240000 0.668750 -0.342219
v -0.240000 0.630750 -0.412750
v -0.240000 0.570625 -0.457406
v -0.240000 0.491000 -0.473000
v -0.240000 0.435656 -0.465453
v -0.240000 0.388750 -0.443375
v -0.240000 0.351219 -0.407609
v -0.240000 0.324000 -0.359000
v -0.240000 0.289125 -0.401594
v -0.240000 0.246000 -0.438750
v -0.240000 0.194625 -0.474031
v -0.240000 0.135000 -0.511000
v -0.240000 0.103219 -0.531156
v -0.240000 0.074250 -0.550750
v -0.240000 0.041906 -0.573719
v -0.240000 0.000000 -0.604000
v -0.240000 0.000000 -0.487000
v -0.240000 0.140000 -0.397000
v -0.240000 0.223438 -0.337781
v -0.240000 0.270500 -0.291500
v -0.240000 0.291313 -0.252719
v -0.240000 0.296000 -0.216000
v -0.240000 0.296000 -0.175000
v -0.240000 0.000000 -0.175000
v -0.240000 0.000000 -0.077000
v -0.240000 0.682000 -0.077000
v -0.240000 0.682000 -0.249000
v -0.240000 0.384000 -0.238000
v -0.240000 0.393328 -0.303375
v -0.240000 0.418125 -0.344750
v -0.240000 0.453609 -0.366250
v -0.240000 0.495000 -0.372000
v -0.240000 0.538094 -0.364000
v -0.240000 0.570500 -0.340250
v -0.240000 0.590906 -0.298875
v -0.240000 0.598000 -0.238000
v -0.240000 0.598000 -0.175000
v -0.240000 0.384000 -0.175000
v -0.240000 0.668750 -0.342219
v 0.240000 0.668750 -0.342219
v -0.240000 0.630750 -0.412750
v 0.240000 0.630750 -0.412750
v -0.240000 0.570625 -0.457406
v 0.240000 0.570625 -0.457406
v -0.240000 0.491000 -0.473000
v 0.240000 0.491000 -0.473000
v -0.240000 0.435656 -0.465453
v 0.240000 0.435656 -0.465453
v -0.240000 0.388750 -0.443375
v 0.240000 0.388750 -0.443375
v -0.240000 0.351219 -0.407609
v 0.240000 0.351219 -0.407609
v -0.240000 0.324000 -0.359000
v 0.240000 0.324000 -0.359000
v -0.240000 0.289125 -0.401594
v 0.240000 0.289125 -0.401594
v -0.240000 0.246000 -0.438750
v 0.240000 0.246000 -0.438750
v -0.240000 0.194625 -0.474031
v 0.240000 0.194625 -0.474031
v -0.240000 0.135000 -0.511000
v 0.240000 0.135000 -0.511000
v -0.240000 0.103219 -0.531156
v 0.240000 0.103219 -0.531156
v -0.240000 0.074250 -0.550750
v 0.240000 0.074250 -0.550750
v -0.240000 0.041906 -0.573719
v 0.240000 0.041906 -0.573719
v -0.240000 0.000000 -0.604000
v 0.240000 -0.000000 -0.604000
v -0.240000 0.000000 -0.487000
v 0.240000 -0.000000 -0.487000
v -0.240000 0.140000 -0.397000
v 0.240000 0.140000 -0.397000
v -0.240000 0.223438 -0.337781
v 0.240000 0.223437 -0.337781
v -0.240000 0.270500 -0.291500
v 0.240000 0.270500 -0.291500
v -0.240000 0.291313 -0.252719
v 0.240000 0.291313 -0.252719
v -0.240000 0.296000 -0.216000
v 0.240000 0.296000 -0.216000
v -0.240000 0.296000 -0.175000
v 0.240000 0.296000 -0.175000
v -0.240000 0.000000 -0.175000
v 0.240000 -0.000000 -0.175000
v -0.240000 0.000000 -0.077000
v 0.240000 -0.000000 -0.077000
v -0.240000 0.682000 -0.077000
v 0.240000 0.682000 -0.077000
v -0.240000 0.682000 -0.249000
v 0.240000 0.682000 -0.249000
v -0.240000 0.384000 -0.238000
v 0.240000 0.384000 -0.238000
v -0.240000 0.393328 -0.303375
v 0.240000 0.393328 -0.303375
v -0.240000 0.418125 -0.344750
v 0.240000 0.418125 -0.344750
v -0.240000 0.453609 -0.366250
v 0.240000 0.453609 -0.366250
v -0.240000 0.495000 -0.372000
v 0.240000 0.495000 -0.372000
v -0.240000 0.538094 -0.364000
v 0.240000 0.538094 -0.364000
v -0.240000 0.570500 -0.340250
v 0.240000 0.570500 -0.340250
v -0.240000 0.590906 -0.298875
v 0.240000 0.590906 -0.298875
v -0.240000 0.598000 -0.238000
v 0.240000 0.598000 -0.238000
v -0.240000 0.598000 -0.175000
v 0.240000 0.598000 -0.175000
v -0.240000 0.384000 -0.175000
v 0.240000 0.384000 -0.175000
vt 0.648649 0.000000
vt 0.972973 0.000000
vt 0.675676 0.000000
vt 0.702703 0.000000
vt 0.000000 0.000000
vt 0.027027 0.000000
vt 0.945946 0.000000
vt 0.918919 0.000000
vt 0.054054 0.000000
vt 1.000000 0.000000
vt 0.891892 0.000000
vt 0.081081 0.000000
vt 0.864865 0.000000
vt 0.837838 0.000000
vt 0.810811 0.000000
vt 0.108108 0.000000
vt 0.783784 0.000000
vt 0.135135 0.000000
vt 0.756757 0.000000
vt 0.729730 0.000000
vt 0.162162 0.000000
vt 0.594595 0.000000
vt 0.189189 0.000000
vt 0.567568 0.000000
vt 0.216216 0.000000
vt 0.621622 0.000000
vt 0.540541 0.000000
vt 0.513514 0.000000
vt 0.243243 0.000000
vt 0.486486 0.000000
vt 0.270270 0.000000
vt 0.459459 0.000000
vt 0.297297 0.000000
vt 0.432432 0.000000
vt 0.324324 0.000000
vt 0.351351 0.000000
vt 0.378378 0.000000
vt 0.405405 0.000000
vt 0.972973 0.000000
vt 0.648649 0.000000
vt 0.675676 0.000000
vt 0.702703 0.000000
vt 0.000000 0.000000
vt 0.027027 0.000000
vt 0.945946 0.000000
vt 0.918919 0.000000
vt 0.054054 0.000000
vt 1.000000 0.000000
vt 0.891892 0.000000
vt 0.081081 0.000000
vt 0.864865 0.000000
vt 0.837838 0.000000
vt 0.810811 0.000000
vt 0.108108 0.000000
vt 0.783784 0.000000
vt 0.135135 0.000000
vt 0.756757 0.000000
vt 0.729730 0.000000
vt 0.162162 0.000000
vt 0.594595 0.000000
vt 0.189189 0.000000
vt 0.567568 0.000000
vt 0.216216 0.000000
vt 0.621622 0.000000
vt 0.540541 0.000000
vt 0.513514 0.000000
vt 0.243243 0.000000
vt 0.486486 0.000000
vt 0.270270 0.000000
vt 0.459459 0.000000
vt 0.297297 0.000000
vt 0.432432 0.000000
vt 0.324324 0.000000
vt 0.351351 0.000000
vt 0.378378 0.000000
vt 0.405405 0.000000
vt 0.000000 1.000000
vt 0.037037 1.000000
vt 0.037037 0.000000
vt 0.000000 0.000000
vt 0.074074 1.000000
vt 0.074074 0.000000
vt 0.111111 1.000000
vt 0.111111 0.000000
vt 0.148148 1.000000
vt 0.148148 0.000000
vt 0.185185 1.000000
vt 0.185185 0.000000
vt 0.222222 1.000000
vt 0.222222 0.000000
vt 0.259259 1.000000
vt 0.259259 0.000000
vt 0.296296 1.000000
vt 0.296296 0.000000
vt 0.333333 1.000000
vt 0.333333 0.000000
vt 0.370370 1.000000
vt 0.370370 0.000000
vt 0.407407 1.000000
vt 0.407407 0.000000
vt 0.444444 1.000000
vt 0.444444 0.000000
vt 0.481481 1.000000
vt 0.481481 0.000000
vt 0.518519 1.000000
vt 0.518519 0.000000
vt 0.555556 1.000000
vt 0.555556 0.000000
vt 0.592593 1.000000
vt 0.592593 0.000000
vt 0.629630 1.000000
vt 0.629630 0.000000
vt 0.666667 1.000000
vt 0.666667 0.000000
vt 0.703704 1.000000
vt 0.703704 0.000000
vt 0.740741 1.000000
vt 0.740741 0.000000
vt 0.777778 1.000000
vt 0.777778 0.000000
vt 0.814815 1.000000
vt 0.814815 0.000000
vt 0.851852 1.000000
vt 0.851852 0.000000
vt 0.888889 1.000000
vt 0.888889 0.000000
vt 0.925926 1.000000
vt 0.925926 0.000000
vt 0.962963 1.000000
vt 0.962963 0.000000
vt 1.000000 1.000000
vt 1.000000 0.000000
vt 0.000000 1.000000
vt 0.090909 1.000000
vt 0.090909 0.000000
vt 0.000000 0.000000
vt 0.181818 1.000000
vt 0.181818 0.000000
vt 0.272727 1.000000
vt 0.272727 0.000000
vt 0.363636 1.000000
vt 0.363636 0.000000
vt 0.454545 1.000000
vt 0.454545 0.000000
vt 0.545455 1.000000
vt 0.545455 0.000000
vt 0.636364 1.000000
vt 0.636364 0.000000
vt 0.727273 1.000000
vt 0.727273 0.000000
vt 0.818182 1.000000
vt 0.818182 0.000000
vt 0.909091 1.000000
vt 0.909091 0.000000
vt 1.000000 1.000000
vt 1.000000 0.000000
vn 1.0000 -0.0000 0.0000
vn -1.0000 0.0000 -0.0000
vn 0.0000 0.9499 -0.3124
vn 0.0000 0.7563 -0.6541
vn 0.0000 0.4042 -0.9146
vn 0.0000 0.0289 -0.9996
vn 0.0000 -0.2838 -0.9589
vn 0.0000 -0.5651 -0.8250
vn 0.0000 -0.7900 -0.6131
vn 0.0000 -0.0877 -0.9961
vn 0.0000 0.7159 -0.6982
vn 0.0000 0.6103 -0.7921
vn 0.0000 0.5466 -0.8373
vn 0.0000 0.5313 -0.8472
vn 0.0000 0.5480 -0.8365
vn 0.0000 0.5697 -0.8219
vn 0.0000 0.5823 -0.8129
vn 0.0000 -0.4551 -0.8904
vn 0.0000 -0.8777 0.4792
vn 0.0000 -0.5599 0.8285
vn 0.0000 -0.6420 0.7667
vn 0.0000 -0.8002 0.5997
vn 0.0000 -0.9524 0.3048
vn 0.0000 -0.9980 0.0634
vn 0.0000 -0.7071 -0.7071
vn 0.0000 -0.7071 0.7071
vn 0.0000 0.7071 0.7071
vn 0.0000 0.9975 -0.0705
vn 0.0000 0.9975 0.0708
vn 0.0000 0.9425 0.3342
vn 0.0000 0.7088 0.7054
vn 0.0000 0.3348 0.9423
vn 0.0000 -0.0227 0.9997
vn 0.0000 -0.3968 0.9179
vn 0.0000 -0.7660 0.6429
vn 0.0000 -0.9590 0.2832
vn 0.0000 -0.9983 0.0580
vn 0.0000 0.7071 -0.7071
s off
f 25/1/1 37/2/1 26/3/1
f 37/2/1 27/4/1 26/3/1
f 37/2/1 1/5/1 27/4/1
f 37/2/1 2/6/1 1/5/1
f 37/2/1 36/7/1 2/6/1
f 36/7/1 35/8/1 2/6/1
f 35/8/1 3/9/1 2/6/1
f 25/1/1 38/10/1 37/2/1
f 34/11/1 3/9/1 35/8/1
f 34/11/1 4/12/1 3/9/1
f 33/13/1 4/12/1 34/11/1
f 32/14/1 4/12/1 33/13/1
f 31/15/1 4/12/1 32/14/1
f 31/15/1 5/16/1 4/12/1
f 30/17/1 5/16/1 31/15/1
f 30/17/1 6/18/1 5/16/1
f 29/19/1 6/18/1 30/17/1
f 28/20/1 6/18/1 29/19/1
f 28/20/1 7/21/1 6/18/1
f 25/1/1 23/22/1 38/10/1
f 23/22/1 28/20/1 38/10/1
f 23/22/1 7/21/1 28/20/1
f 23/22/1 8/23/1 7/21/1
f 23/22/1 22/24/1 8/23/1
f 22/24/1 9/25/1 8/23/1
f 25/1/1 24/26/1 23/22/1
f 21/27/1 9/25/1 22/24/1
f 20/28/1 9/25/1 21/27/1
f 20/28/1 10/29/1 9/25/1
f 19/30/1 10/29/1 20/28/1
f 19/30/1 11/31/1 10/29/1
f 18/32/1 11/31/1 19/30/1
f 18/32/1 12/33/1 11/31/1
f 17/34/1 12/33/1 18/32/1
f 17/34/1 13/35/1 12/33/1
f 17/34/1 14/36/1 13/35/1
f 17/34/1 15/37/1 14/36/1
f 17/34/1 16/38/1 15/37/1
f 75/39/2 63/40/2 64/41/2
f 65/42/2 75/39/2 64/41/2
f 39/43/2 75/39/2 65/42/2
f 40/44/2 75/39/2 39/43/2
f 74/45/2 75/39/2 40/44/2
f 73/46/2 74/45/2 40/44/2
f 41/47/2 73/46/2 40/44/2
f 76/48/2 63/40/2 75/39/2
f 41/47/2 72/49/2 73/46/2
f 42/50/2 72/49/2 41/47/2
f 42/50/2 71/51/2 72/49/2
f 42/50/2 70/52/2 71/51/2
f 42/50/2 69/53/2 70/52/2
f 43/54/2 69/53/2 42/50/2
f 43/54/2 68/55/2 69/53/2
f 44/56/2 68/55/2 43/54/2
f 44/56/2 67/57/2 68/55/2
f 44/56/2 66/58/2 67/57/2
f 45/59/2 66/58/2 44/56/2
f 61/60/2 63/40/2 76/48/2
f 66/58/2 61/60/2 76/48/2
f 45/59/2 61/60/2 66/58/2
f 46/61/2 61/60/2 45/59/2
f 60/62/2 61/60/2 46/61/2
f 47/63/2 60/62/2 46/61/2
f 62/64/2 63/40/2 61/60/2
f 47/63/2 59/65/2 60/62/2
f 47/63/2 58/66/2 59/65/2
f 48/67/2 58/66/2 47/63/2
f 48/67/2 57/68/2 58/66/2
f 49/69/2 57/68/2 48/67/2
f 49/69/2 56/70/2 57/68/2
f 50/71/2 56/70/2 49/69/2
f 50/71/2 55/72/2 56/70/2
f 51/73/2 55/72/2 50/71/2
f 52/74/2 55/72/2 51/73/2
f 53/75/2 55/72/2 52/74/2
f 54/76/2 55/72/2 53/75/2
s 1
f 78/77/3 80/78/4 79/79/4 77/80/3
f 80/78/4 82/81/5 81/82/5 79/79/4
f 82/81/5 84/83/6 83/84/6 81/82/5
f 84/83/6 86/85/7 85/86/7 83/84/6
f 86/85/7 88/87/8 87/88/8 85/86/7
f 88/87/8 90/89/9 89/90/9 87/88/8
f 90/89/9 92/91/10 91/92/10 89/90/9
f 92/91/10 94/93/11 93/94/11 91/92/10
f 94/93/11 96/95/12 95/96/12 93/94/11
f 96/95/12 98/97/13 97/98/13 95/96/12
f 98/97/13 100/99/14 99/100/14 97/98/13
f 100/99/14 102/101/15 101/102/15 99/100/14
f 102/101/15 104/103/16 103/104/16 101/102/15
f 104/103/16 106/105/17 105/106/17 103/104/16
f 106/105/17 108/107/18 107/108/18 105/106/17
f 108/107/18 110/109/19 109/110/19 107/108/18
f 110/109/19 112/111/20 111/112/20 109/110/19
f 112/111/20 114/113/21 113/114/21 111/112/20
f 114/113/21 116/115/22 115/116/22 113/114/21
f 116/115/22 118/117/23 117/118/23 115/116/22
f 118/117/23 120/119/24 119/120/24 117/118/23
f 120/119/24 122/121/25 121/122/25 119/120/24
f 122/121/25 124/123/25 123/124/25 121/122/25
f 124/123/25 126/125/26 125/126/26 123/124/25
f 126/125/26 128/127/27 127/128/27 125/126/26
f 128/127/27 130/129/28 129/130/28 127/128/27
f 130/129/28 78/131/3 77/132/3 129/130/28
f 132/133/29 134/134/30 133/135/30 131/136/29
f 134/134/30 136/137/31 135/138/31 133/135/30
f 136/137/31 138/139/32 137/140/32 135/138/31
f 138/139/32 140/141/33 139/142/33 137/140/32
f 140/141/33 142/143/34 141/144/34 139/142/33
f 142/143/34 144/145/35 143/146/35 141/144/34
f 144/145/35 146/147/36 145/148/36 143/146/35
f 146/147/36 148/149/37 147/150/37 145/148/36
f 148/149/37 150/151/25 149/152/25 147/150/37
f 150/151/25 152/153/38 151/154/38 149/152/25
f 152/153/38 132/155/29 131/156/29 151/154/38
