# Blender v2.92.0 OBJ File: ''
# www.blender.org
o OpenFracture
v 0.240000 -0.000000 -0.567000
v 0.240000 0.201000 -0.476000
v 0.240000 0.201000 -0.186000
v 0.240000 -0.000000 -0.100000
v 0.240000 -0.000000 0.000000
v 0.240000 0.686000 -0.293000
v 0.240000 0.686000 -0.362000
v 0.240000 -0.000000 -0.667000
v 0.240000 0.289000 -0.436000
v 0.240000 0.536000 -0.326000
v 0.240000 0.289000 -0.224000
v -0.240000 0.000000 -0.567000
v -0.240000 0.201000 -0.476000
v -0.240000 0.201000 -0.186000
v -0.240000 0.000000 -0.100000
v -0.240000 0.000000 0.000000
v -0.240000 0.686000 -0.293000
v -0.240000 0.686000 -0.362000
v -0.240000 0.000000 -0.667000
v -0.240000 0.289000 -0.436000
v -0.240000 0.536000 -0.326000
v -0.240000 0.289000 -0.224000
v -0.240000 0.000000 -0.567000
v 0.240000 -0.000000 -0.567000
v -0.240000 0.201000 -0.476000
v 0.240000 0.201000 -0.476000
v -0.240000 0.201000 -0.186000
v 0.240000 0.201000 -0.186000
v -0.240000 0.000000 -0.100000
v 0.240000 -0.000000 -0.100000
v -0.240000 0.000000 0.000000
v 0.240000 -0.000000 0.000000
v -0.240000 0.686000 -0.293000
v 0.240000 0.686000 -0.293000
v -0.240000 0.686000 -0.362000
v 0.240000 0.686000 -0.362000
v -0.240000 0.000000 -0.667000
v 0.240000 -0.000000 -0.667000
v -0.240000 0.289000 -0.436000
v 0.240000 0.289000 -0.436000
v -0.240000 0.536000 -0.326000
v 0.240000 0.536000 -0.326000
v -0.240000 0.289000 -0.224000
v 0.240000 0.289000 -0.224000
vt 0.400000 0.000000
vt 0.600000 0.000000
vt 0.500000 0.000000
vt 0.900000 0.000000
vt 0.700000 0.000000
vt 1.000000 0.000000
vt 0.800000 0.000000
vt 0.200000 0.000000
vt 0.100000 0.000000
vt 0.300000 0.000000
vt 0.000000 0.000000
vt 0.600000 0.000000
vt 0.400000 0.000000
vt 0.500000 0.000000
vt 0.900000 0.000000
vt 0.700000 0.000000
vt 1.000000 0.000000
vt 0.800000 0.000000
vt 0.200000 0.000000
vt 0.100000 0.000000
vt 0.300000 0.000000
vt 0.000000 0.000000
vt 0.000000 1.000000
vt 0.125000 1.000000
vt 0.125000 0.000000
vt 0.000000 0.000000
vt 0.250000 1.000000
vt 0.250000 0.000000
vt 0.375000 1.000000
vt 0.375000 0.000000
vt 0.500000 1.000000
vt 0.500000 0.000000
vt 0.625000 1.000000
vt 0.625000 0.000000
vt 0.750000 1.000000
vt 0.750000 0.000000
vt 0.875000 1.000000
vt 0.875000 0.000000
vt 1.000000 1.000000
vt 1.000000 0.000000
vt 0.000000 1.000000
vt 0.333333 1.000000
vt 0.333333 0.000000
vt 0.000000 0.000000
vt 0.666667 1.000000
vt 0.666667 0.000000
vt 1.000000 1.000000
vt 1.000000 0.000000
vn 1.0000 0.0000 0.0000
vn -1.0000 0.0000 0.0000
vn 0.0000 -0.8404 0.5420
vn 0.0000 -0.8347 -0.5507
vn 0.0000 -0.5510 0.8345
vn 0.0000 0.8345 0.5510
vn 0.0000 0.8385 -0.5448
vn 0.0000 -0.5448 -0.8385
vn 0.0000 0.5446 0.8387
vn 0.0000 -0.9999 -0.0137
vn 0.0000 0.5560 -0.8311
s off
f 5/1/1 7/2/1 6/3/1
f 5/1/1 10/4/1 7/2/1
f 10/4/1 8/5/1 7/2/1
f 5/1/1 11/6/1 10/4/1
f 9/7/1 8/5/1 10/4/1
f 5/1/1 3/8/1 11/6/1
f 3/8/1 9/7/1 11/6/1
f 3/8/1 2/9/1 9/7/1
f 2/9/1 8/5/1 9/7/1
f 5/1/1 4/10/1 3/8/1
f 1/11/1 8/5/1 2/9/1
f 18/12/2 16/13/2 17/14/2
f 21/15/2 16/13/2 18/12/2
f 19/16/2 21/15/2 18/12/2
f 22/17/2 16/13/2 21/15/2
f 19/16/2 20/18/2 21/15/2
f 14/19/2 16/13/2 22/17/2
f 20/18/2 14/19/2 22/17/2
f 13/20/2 14/19/2 20/18/2
f 19/16/2 13/20/2 20/18/2
f 15/21/2 16/13/2 14/19/2
f 19/16/2 12/22/2 13/20/2
s 1
f 24/23/3 26/24/3 25/25/3 23/26/3
f 26/24/3 28/27/4 27/28/4 25/25/3
f 28/27/4 30/29/4 29/30/4 27/28/4
f 30/29/4 32/31/5 31/32/5 29/30/4
f 32/31/5 34/33/6 33/34/6 31/32/5
f 34/33/6 36/35/7 35/36/7 33/34/6
f 36/35/7 38/37/8 37/38/8 35/36/7
f 38/37/8 24/39/3 23/40/3 37/38/8
f 40/41/9 42/42/10 41/43/10 39/44/9
f 42/42/10 44/45/11 43/46/11 41/43/10
f 44/45/11 40/47/9 39/48/9 43/46/11
